<svg width="48" height="48" viewBox="0 0 48 48" fill="none" xmlns="http://www.w3.org/2000/svg">
<g clip-path="url(#clip0_34142_1329)">
<path d="M6 0L6 46.5C5.99981 46.7605 6.06745 47.0165 6.19627 47.2429C6.32509 47.4693 6.51065 47.6583 6.73468 47.7912C6.9587 47.9241 7.21347 47.9963 7.47391 48.0009C7.73436 48.0054 7.99149 47.942 8.22 47.817L24 39.207L39.78 47.817C40.0085 47.942 40.2656 48.0054 40.5261 48.0009C40.7865 47.9963 41.0413 47.9241 41.2653 47.7912C41.4894 47.6583 41.6749 47.4693 41.8037 47.2429C41.9325 47.0165 42.0002 46.7605 42 46.5V0H6Z" fill="#111117"/>
<g clip-path="url(#clip1_34142_1329)">
<path d="M17.4179 31.1645C16.8389 31.4615 16.1819 30.941 16.2989 30.2765L17.5439 23.1815L12.2594 18.1475C11.7659 17.6765 12.0224 16.8155 12.6839 16.7225L20.0309 15.6785L23.3069 9.18799C23.6024 8.60299 24.4019 8.60299 24.6974 9.18799L27.9734 15.6785L35.3204 16.7225C35.9819 16.8155 36.2384 17.6765 35.7434 18.1475L30.4604 23.1815L31.7054 30.2765C31.8224 30.941 31.1654 31.4615 30.5864 31.1645L23.9999 27.7805L17.4179 31.1645Z" fill="#C51D1D"/>
</g>
</g>
<defs>
<clipPath id="clip0_34142_1329">
<rect width="48" height="48" fill="white"/>
</clipPath>
<clipPath id="clip1_34142_1329">
<rect width="24" height="24" fill="white" transform="translate(12 8)"/>
</clipPath>
</defs>
</svg>
