<?xml version="1.0" standalone="no"?>
<!DOCTYPE svg PUBLIC "-//W3C//DTD SVG 20010904//EN"
 "http://www.w3.org/TR/2001/REC-SVG-20010904/DTD/svg10.dtd">
<svg version="1.0" xmlns="http://www.w3.org/2000/svg"
 width="170.000000pt" height="41.000000pt" viewBox="0 0 170.000000 41.000000"
 preserveAspectRatio="xMidYMid meet">

<g transform="translate(0.000000,41.000000) scale(0.100000,-0.100000)"
fill="#000000" stroke="none">
<path d="M71 328 c-20 -111 -41 -252 -41 -275 0 -39 37 -29 44 11 5 28 12 36
36 41 39 8 50 0 50 -36 0 -27 3 -30 23 -23 12 3 24 8 25 9 2 2 -9 78 -24 169
l-27 166 -37 0 -38 0 -11 -62z m63 -92 l13 -86 -30 0 -30 0 7 62 c9 79 17 120
23 114 2 -2 10 -43 17 -90z"/>
<path d="M250 219 c0 -152 2 -170 16 -165 9 3 40 6 70 6 51 0 54 1 54 25 0 23
-2 24 -45 18 l-45 -6 0 147 0 146 -25 0 -25 0 0 -171z"/>
<path d="M420 252 c0 -165 7 -182 75 -182 35 0 48 5 64 26 19 24 21 40 21 160
l0 134 -25 0 -24 0 -3 -137 -3 -138 -25 0 -25 0 -3 138 -3 137 -24 0 -25 0 0
-138z"/>
<path d="M630 235 c0 -147 1 -155 20 -155 16 0 19 8 22 62 3 58 5 63 27 66 31
5 41 -12 41 -75 0 -50 2 -53 25 -53 23 0 25 3 25 50 0 50 -16 100 -32 100 -5
0 0 12 11 26 23 30 26 61 10 98 -13 28 -35 36 -101 36 l-48 0 0 -155z m106 91
c8 -33 2 -57 -17 -69 -29 -18 -49 -1 -49 41 0 45 5 52 36 52 17 0 25 -7 30
-24z"/>
<path d="M847 247 c-32 -172 -32 -167 -7 -167 15 0 22 9 27 30 5 27 9 30 43
30 34 0 38 -3 44 -30 4 -23 11 -30 30 -30 18 0 23 5 20 17 -2 10 -13 70 -24
133 -31 174 -25 160 -68 160 l-38 0 -27 -143z m77 31 c4 -29 10 -63 13 -75 5
-20 1 -23 -27 -23 -30 0 -32 2 -27 29 3 15 9 51 13 79 8 64 19 59 28 -10z"/>
<path d="M1040 235 l0 -155 25 0 c24 0 25 2 25 65 l0 65 35 0 c28 0 35 4 35
20 0 16 -7 20 -35 20 l-35 0 0 50 0 50 45 0 c38 0 45 3 45 20 0 18 -7 20 -70
20 l-70 0 0 -155z"/>
<path d="M1220 230 l0 -160 33 0 c17 0 49 -3 70 -6 33 -6 37 -4 37 14 0 22
-18 32 -61 32 l-29 0 0 140 0 140 -25 0 -25 0 0 -160z"/>
<path d="M1390 226 l0 -164 25 -4 25 -5 0 168 0 169 -25 0 -25 0 0 -164z"/>
<path d="M1510 308 l29 -84 -23 -64 c-41 -114 -41 -112 -14 -108 18 2 27 15
43 60 11 31 23 59 26 62 3 4 16 -28 28 -69 19 -67 24 -75 46 -75 14 0 25 1 25
3 0 2 -13 45 -30 97 l-29 94 29 83 29 83 -23 0 c-18 0 -25 -8 -35 -42 -30
-100 -31 -100 -55 -28 -20 56 -26 65 -49 68 l-27 3 30 -83z"/>
</g>
</svg>
