<svg version="1.1" viewBox="0.0 0.0 960.0 720.0" fill="none" stroke="none" stroke-linecap="square" stroke-miterlimit="10" xmlns:xlink="http://www.w3.org/1999/xlink" xmlns="http://www.w3.org/2000/svg"><clipPath id="p.0"><path d="m0 0l960.0 0l0 720.0l-960.0 0l0 -720.0z" clip-rule="nonzero"/></clipPath><g clip-path="url(#p.0)"><path fill="#000000" fill-opacity="0.0" d="m0 0l960.0 0l0 720.0l-960.0 0z" fill-rule="evenodd"/><g filter="url(#shadowFilter-p.1)"><use xlink:href="#p.1" transform="matrix(1.0 0.0 0.0 1.0 0.0 3.0)"/></g><defs><filter id="shadowFilter-p.1" filterUnits="userSpaceOnUse"><feGaussianBlur in="SourceAlpha" stdDeviation="2.5" result="blur"/><feComponentTransfer in="blur" color-interpolation-filters="sRGB"><feFuncR type="linear" slope="0" intercept="1.0"/><feFuncG type="linear" slope="0" intercept="1.0"/><feFuncB type="linear" slope="0" intercept="1.0"/><feFuncA type="linear" slope="0.4" intercept="0"/></feComponentTransfer></filter></defs><g id="p.1"><path fill="#000000" fill-opacity="0.0" d="m0 134.61154l953.5748 0l0 441.13388l-953.5748 0z" fill-rule="evenodd"/><path fill="#257be5" d="m71.34628 269.96536l37.359375 0l28.5625 175.45312l-27.5625 0l-5.015625 -34.84375l0 0.5l-31.328125 0l-5.015625 34.34375l-25.5625 0l28.5625 -175.45312zm30.078125 117.296875l-12.28125 -86.71875l-0.5 0l-12.03125 86.71875l24.8125 0zm49.1382 -117.296875l27.5625 0l0 150.39062l45.375 0l0 25.0625l-72.9375 0l0 -175.45312zm126.319534 177.95312q-20.046875 0 -30.578125 -11.390625q-10.515625 -11.40625 -10.515625 -32.71875l0 -133.84375l27.5625 0l0 135.84375q0 9.03125 3.625 13.046875q3.640625 4.0 10.421875 4.0q6.765625 0 10.390625 -4.0q3.640625 -4.015625 3.640625 -13.046875l0 -135.84375l26.5625 0l0 133.84375q0 21.3125 -10.53125 32.71875q-10.515625 11.390625 -30.578125 11.390625zm60.670105 -177.95312l40.859375 0q21.296875 0 31.0625 9.90625q9.78125 9.890625 9.78125 30.4375l0 10.78125q0 27.328125 -18.046875 34.59375l0 0.5q10.03125 3.015625 14.15625 12.296875q4.140625 9.265625 4.140625 24.796875l0 30.828125q0 7.53125 0.5 12.171875q0.515625 4.625 2.515625 9.140625l-28.078125 0q-1.5 -4.265625 -2.0 -8.015625q-0.5 -3.765625 -0.5 -13.546875l0 -32.078125q0 -12.03125 -3.890625 -16.796875q-3.875 -4.765625 -13.40625 -4.765625l-9.53125 0l0 75.203125l-27.5625 0l0 -175.45312zm37.59375 75.1875q8.265625 0 12.40625 -4.25q4.140625 -4.265625 4.140625 -14.296875l0 -13.53125q0 -9.53125 -3.390625 -13.78125q-3.375 -4.265625 -10.65625 -4.265625l-12.53125 0l0 50.125l10.03125 0zm84.71762 -75.1875l37.359375 0l28.56253 175.45312l-27.56253 0l-5.015625 -34.84375l0 0.5l-31.328125 0l-5.015625 34.34375l-25.5625 0l28.5625 -175.45312zm30.078125 117.296875l-12.28125 -86.71875l-0.5 0l-12.03125 86.71875l24.8125 0zm40.109283 -42.109375l55.140625 0l0 25.0625l-55.140625 0l0 -25.0625zm71.69287 -75.1875l72.9375 0l0 25.0625l-45.375 0l0 48.875l35.59375 0l0 25.0625l-35.59375 0l0 76.453125l-27.5625 0l0 -175.45312zm86.22571 0l27.5625 0l0 150.39062l45.375 0l0 25.0625l-72.9375 0l0 -175.45312zm86.22583 0l27.5625 0l0 175.45312l-27.5625 0l0 -175.45312zm72.43848 85.71875l-30.328125 -85.71875l29.078125 0l18.546875 56.640625l0.5 0l19.046875 -56.640625l26.0625 0l-30.328125 85.71875l31.84375 89.734375l-29.078125 0l-20.0625 -61.15625l-0.5 0l-20.546875 61.15625l-26.078125 0l31.84375 -89.734375z" fill-rule="nonzero"/></g></g></svg>